<?xml version='1.0' encoding='utf-8'?>
<svg xmlns="http://www.w3.org/2000/svg" width="1920" height="1080" viewBox="0 0 1920 1080" data-theme="dark">
  <style>
        @font-face {
            font-family: 'Inter';
            src: url('assets/fonts/Inter-Regular.ttf') format('truetype');
            font-weight: 400;
            font-style: normal;
            font-display: swap;
        }
        @font-face {
            font-family: 'Inter';
            src: url('assets/fonts/Inter-Bold.ttf') format('truetype');
            font-weight: 600;
            font-style: normal;
            font-display: swap;
        }
        @font-face {
            font-family: 'Inter';
            src: url('assets/fonts/Inter-Bold.ttf') format('truetype');
            font-weight: 800;
            font-style: normal;
            font-display: swap;
        }
        
:root {
    --background: #0f172a;
    --panel: #1e293b;
    --primary-text: #f1f5f9;
    --muted-text: #94a3b8;
    --inverse-text: #0f172a;
    --border: #334155;
    --shadow-color: #000000;
    --icon-pad-bg: #1e293b;
    --art-glow: #7dd3fc;
    --art-glow-opacity: 0.18;
    --art-sheen: #ffffff;
    --art-sheen-opacity: 0.18;
    --art-shadow: #000000;
    --art-shadow-opacity: 0.28;
    --art-muted-line: #64748b;
    --art-panel-tint: #1e293b;
    --font-family: 'Inter', 'Segoe UI', 'Kalam', Roboto, Helvetica, Arial, sans-serif;
    --radius-xl: 16px;
    --font-family-headline: 'Inter', 'Segoe UI', 'Kalam', Roboto, Helvetica, Arial, sans-serif;
    --font-family-body: 'Inter', 'Segoe UI', 'Kalam', Roboto, Helvetica, Arial, sans-serif;
    --font-heading: 'Inter', 'Segoe UI', 'Kalam', Roboto, Helvetica, Arial, sans-serif;
    --font-body: 'Inter', 'Segoe UI', 'Kalam', Roboto, Helvetica, Arial, sans-serif;
    --font-size-h1: 56px;
    --font-size-h2: 40px;
    --font-size-h3: 28px;
    --font-size-body: 24px;
    --font-size-caption: 18px;
    --secondary-text: var(--muted-text);
    --panel-border: var(--border);
    --font-weight-normal: 400;
    --font-weight-medium: 500;
    --font-weight-semibold: 600;
    --font-weight-bold: 700;
    --spacing-gutter-pct: 0.07;
    --spacing-top-pct: 0.15;
    --spacing-bottom-pct: 0.07;
    --spacing-title-y-pct: 0.055;
    --accent-1: #22d3ee;
    --accent-2: #38bdf8;
    --accent-3: #60a5fa;
    --accent-4: #818cf8;
    --accent-5: #a78bfa;
    --accent-6: #2dd4bf;
}
:root[data-theme="dark"] {
    --background: #0f172a;
    --panel: #1e293b;
    --primary-text: #f1f5f9;
    --muted-text: #94a3b8;
    --inverse-text: #0f172a;
    --border: #334155;
    --shadow-color: #000000;
    --icon-pad-bg: #1e293b;
    --art-glow: #7dd3fc;
    --art-glow-opacity: 0.18;
    --art-sheen: #ffffff;
    --art-sheen-opacity: 0.18;
    --art-shadow: #000000;
    --art-shadow-opacity: 0.28;
    --art-muted-line: #64748b;
    --art-panel-tint: #1e293b;
    --accent-1: #22d3ee;
    --accent-2: #38bdf8;
    --accent-3: #60a5fa;
    --accent-4: #818cf8;
    --accent-5: #a78bfa;
    --accent-6: #2dd4bf;
}
:root[data-theme="light"] {
    --background: #f8fafc;
    --panel: #ffffff;
    --primary-text: #0f172a;
    --muted-text: #64748b;
    --inverse-text: #ffffff;
    --border: #e2e8f0;
    --shadow-color: #000000;
    --icon-pad-bg: #1e293b;
    --art-glow: #0891b2;
    --art-glow-opacity: 0.10;
    --art-sheen: #ffffff;
    --art-sheen-opacity: 0.34;
    --art-shadow: #0f172a;
    --art-shadow-opacity: 0.14;
    --art-muted-line: #94a3b8;
    --art-panel-tint: #f1f5f9;
    --accent-1: #0891b2;
    --accent-2: #0284c7;
    --accent-3: #2563eb;
    --accent-4: #4f46e5;
    --accent-5: #7c3aed;
    --accent-6: #0d9488;
}</style>
  <rect x="0" y="0" width="1.92E+3" height="1.08E+3" fill="#252a34" stroke="none" id="programmatic_background"/>
  <line id="HEADER_DECOR" x1="960.0" x2="1080.0" y1="125.0" y2="125.0" stroke="var(--accent-1)" stroke-width="6" stroke-linecap="round"/>
  <defs>
    <pattern id="svg285016bf-napkin-hatch" patternUnits="userSpaceOnUse" width="12" height="12">
      <path d="M -3 12 L 12 -3 M 0 15 L 15 0" fill="none" stroke="var(--primary-text)" stroke-width="1" stroke-opacity="0.05"/>
    </pattern>
    <filter id="svg285016bf-soft-shadow" x="-30%" y="-30%" width="160%" height="160%">
      <feDropShadow dx="0" dy="4" stdDeviation="10" flood-color="#000000" flood-opacity="0.2"/>
    </filter>
    <radialGradient id="svg285016bf-universal-edge-vignette" cx="50%" cy="50%" r="72%">
      <stop offset="0%" stop-color="var(--background)" stop-opacity="0"/>
      <stop offset="72%" stop-color="var(--background)" stop-opacity="0.12"/>
      <stop offset="100%" stop-color="var(--primary-text)" stop-opacity="0.08"/>
    </radialGradient>
    <linearGradient id="svg285016bf-universal-surface-sheen" x1="0%" y1="0%" x2="100%" y2="100%">
      <stop offset="0%" stop-color="var(--art-sheen)" stop-opacity="var(--art-sheen-opacity)"/>
      <stop offset="46%" stop-color="var(--art-sheen)" stop-opacity="0.035"/>
      <stop offset="100%" stop-color="var(--art-panel-tint)" stop-opacity="0.14"/>
    </linearGradient>
    <radialGradient id="svg285016bf-universal-icon-aura" cx="50%" cy="42%" r="64%">
      <stop offset="0%" stop-color="var(--art-glow)" stop-opacity="var(--art-glow-opacity)"/>
      <stop offset="100%" stop-color="var(--background)" stop-opacity="0"/>
    </radialGradient>
    <linearGradient id="svg285016bf-comparison-card-depth" x1="0%" y1="0%" x2="0%" y2="100%">
      <stop offset="0%" stop-color="var(--art-sheen)" stop-opacity="0.30"/>
      <stop offset="55%" stop-color="var(--art-sheen)" stop-opacity="0.035"/>
      <stop offset="100%" stop-color="var(--art-shadow)" stop-opacity="0.10"/>
    </linearGradient>
    <filter id="svg285016bf-text-glow" x="-20%" y="-20%" width="140%" height="140%">
      <feDropShadow dx="0" dy="0" stdDeviation="2" flood-color="#000000" flood-opacity="0.4"/>
    </filter>
    <filter id="svg285016bf-shadow" x="-30%" y="-30%" width="160%" height="160%">
      <feDropShadow dx="0" dy="2" stdDeviation="3" flood-color="#000000" flood-opacity="0.08"/>
      <feDropShadow dx="0" dy="6" stdDeviation="10" flood-color="#000000" flood-opacity="0.12"/>
    </filter>
    <marker id="svg285016bf-arrowhead" markerWidth="10" markerHeight="7" refX="9" refY="3.5" orient="auto" markerUnits="strokeWidth">
      <polygon points="0 0, 10 3.5, 0 7" fill="var(--muted-text)" opacity="0.6"/>
    </marker>
  </defs>
  <rect id="CANVAS_BG" width="100%" height="100%" fill="var(--background)"/>
  <rect width="100%" height="100%" fill="url(#svg285016bf-napkin-hatch)"/>
  <rect id="UNIVERSAL_EDGE_VIGNETTE" width="100%" height="100%" fill="url(#svg285016bf-universal-edge-vignette)" opacity="0.62"/>
  <text id="TITLE" x="960.0" y="59" text-anchor="middle" font-size="60" font-weight="800" fill="#f1f5f9" style="font-size: 60px; font-family: Inter, Segoe UI, Kalam, Roboto, Helvetica, Arial, sans-serif; font-weight: 700; letter-spacing:-1.2px;" data-final-font-size="60">
    <tspan x="960.0" dy="68.00px">Common Steelmanning Misconceptions</tspan>
  </text>
  <rect id="TITLE_FRAME" x="134" y="59" width="1652" height="103" fill="none"/>
  <rect x="110" y="180" width="1700" height="770" rx="38" fill="var(--panel)" fill-opacity="0.28" stroke="var(--muted-text)" stroke-width="2" opacity="0.92"/>
  <line x1="960" y1="225" x2="960" y2="545" stroke="var(--muted-text)" stroke-width="4" stroke-dasharray="10 10" opacity="0.35"/>
  <rect x="878" y="370" width="164" height="34" rx="17" fill="var(--background)" stroke="var(--muted-text)" stroke-width="2" opacity="0.9"/>
  <text x="960" y="394" text-anchor="middle" font-size="20" font-weight="700" fill="var(--primary-text)">Tradeoffs</text>
  <g filter="url(#svg285016bf-soft-shadow)">
    <rect id="ITEM_1_BG" x="150" y="230" width="700" height="300" rx="30" fill="var(--panel)" fill-opacity="0.97" stroke="var(--accent-1)" stroke-width="3"/>
    <rect x="150" y="230" width="700" height="18" rx="9" fill="var(--accent-1)" fill-opacity="0.55"/>
    <rect x="392" y="258" width="380" height="34" rx="17" fill="var(--accent-1)" fill-opacity="0.12"/>
    <circle id="ITEM_1_PAD" cx="250" cy="322" r="52" fill="var(--icon-pad-bg)" opacity="0.95" fill-opacity="0.9" stroke-width="2" stroke="var(--primary-text)"/>
    <circle id="ITEM_1_PAD_INNER" cx="250" cy="322" r="40.56" fill="var(--accent-2)" fill-opacity="0.22"/>
    <circle cx="250" cy="322" r="42" fill="none" stroke="var(--accent-1)" stroke-width="3" stroke-dasharray="6 4"/>
    <g id="ITEM_1_ICON" transform="translate(212, 284)" data-icon-size="76" stroke-dasharray="6 4">
      <g transform="translate(-6.278000000000005,-5.264000000000003) scale(0.169)" vector-effect="non-scaling-stroke" fill="#f1f5f9" fill-opacity="1.0" stroke="none">
        <path fill="#f1f5f9" d="M304.482 19.73c-19.18.347-39.96 9.122-56.498 25.66c-22.422 22.423-30.554 52.63-22.783 76.09c-65.956-30.317-59.724-32.208-123.327-73.015c-10.072-6.462-19.445-9.412-27.816-9.805c-13.953-.655-25.126 5.793-32.135 14.926c-11.214 14.613-12.37 36.164 10.95 54.418c31.027 24.286 58.825 41.022 79.015 59.45c20.19 18.43 32.658 40.606 28.355 70.046v.002c-3.16 21.608-13.68 37.998-26.46 51.47c-12.78 13.47-27.77 24.476-41.46 36.676c-27.38 24.4-50.32 51.77-45.052 114.266c3.327 39.483 34.167 55.107 59.666 52.365c12.75-1.372 23.497-7.357 29.394-17.49c5.897-10.13 7.69-25.42-1.037-47.733h-.002c-7.592-19.416 3.128-40.832 18.368-57.09c15.24-16.26 36.807-28.817 58.852-24.998c6.175 1.07 11.446 4.722 15.056 9.157s5.982 9.604 7.955 15.234c3.948 11.262 6.26 24.69 9.117 38.58c5.71 27.777 13.67 55.973 33.068 68.474c37.964 24.468 75.254 17.395 91.902.44c8.325-8.475 11.916-18.84 9.127-31.14c-2.788-12.297-12.694-27.158-34.267-41.845c-23.664-16.11-32.657-48.282-33.846-80.118c-1.188-31.836 5.29-64.08 20.13-84.033c6.878-9.25 17.534-13.128 29.645-17.417c12.11-4.29 26.21-8.48 40.753-14.694c29.086-12.426 59.652-32.204 79.14-76.788c17.078-39.068 3.357-64.292-15.298-73.474c-9.327-4.592-20.128-5.156-30.435-.65c-10.308 4.505-20.442 14.216-27.45 31.78c-13.14 32.932-39.195 51.68-70.414 56.41c-8.096 1.225-16.527 1.586-25.223 1.163c7.505-4.07 14.71-9.39 21.25-15.93c29.4-29.4 34.27-72.202 10.87-95.6c-10.236-10.237-24.187-15.063-39.105-14.79zm-51.925 131.79q1.261-.03 2.525.007c4.49.13 8.978.873 13.393 2.305c17.656 5.73 29.82 21.068 35.47 39.566c5.65 18.5 5.292 40.598-1.843 62.635c-7.136 22.038-19.795 40.148-35.213 51.815c-15.42 11.666-34.268 16.947-51.925 11.218c-17.657-5.73-29.82-21.067-35.47-39.566s-5.29-40.6 1.845-62.637c7.135-22.038 19.795-40.148 35.213-51.814c10.84-8.204 23.378-13.25 36.004-13.53zm.21 18.65c-8.075.183-16.6 3.475-24.937 9.783c-11.857 8.972-22.66 23.984-28.71 42.666c-6.048 18.68-6.098 37.188-1.75 51.42c4.346 14.234 12.583 23.75 23.362 27.25c10.78 3.497 23.022.627 34.88-8.345c11.857-8.972 22.66-23.986 28.708-42.668c6.05-18.68 6.097-37.187 1.75-51.42c-4.346-14.232-12.583-23.75-23.363-27.248a29.6 29.6 0 0 0-8.33-1.434a31 31 0 0 0-1.61-.006zm-7.25 27.643q.618-.016 1.24.003a22.3 22.3 0 0 1 6.62 1.204c8.777 3.022 14.27 10.818 16.682 19.2c2.41 8.383 2.197 17.916-.7 27.415c-2.9 9.498-8.015 17.453-14.762 22.87c-6.748 5.42-15.967 8.365-24.744 5.343c-8.778-3.023-14.27-10.82-16.682-19.202s-2.2-17.917.7-27.416c2.897-9.498 8.01-17.453 14.76-22.87c4.743-3.81 10.71-6.398 16.886-6.548zm.46 18.63a5.2 5.2 0 0 0-1.563.192c-1.137.307-2.475 1.006-4.082 2.297c-3.215 2.58-6.668 7.466-8.586 13.752c-1.917 6.285-1.854 12.49-.615 16.795c1.24 4.303 3.2 6.144 4.808 6.698s3.743.337 6.958-2.244s6.67-7.467 8.588-13.752s1.854-12.49.616-16.793c-1.24-4.306-3.2-6.147-4.81-6.7c-.4-.14-.837-.23-1.313-.247z" vector-effect="non-scaling-stroke" stroke="none"/>
      </g>
    </g>
    <rect id="ITEM_1_TEXT_BG" x="330.0" y="266.0" width="468.0" height="226.0" rx="22" fill="var(--panel)" fill-opacity="0.94" stroke="var(--primary-text)" stroke-opacity="0.12" stroke-width="1.5"/>
    <rect id="COMPARISON_COLUMNS_ART_PANEL_SHEEN_1" x="330.0" y="266.0" width="468.0" height="226.0" rx="16" fill="var(--accent-2)" opacity="0.82" fill-opacity="0.15" stroke="none"/>
    <text id="ITEM_1_HEAD" x="564.0" y="282.0" text-anchor="middle" font-size="32" font-weight="800" fill="var(--primary-text)" data-bg-id="ITEM_1_TEXT_BG" fill-opacity="1.0" stroke="none" style="font-size: 30px; font-family: Inter, Segoe UI, Kalam, Roboto, Helvetica, Arial, sans-serif; font-weight: 700; letter-spacing:-0.4px;" data-final-font-size="30">
      <tspan x="564.0" dy="40.49px">Weak Opponents</tspan>
    </text>
    <rect id="ITEM_1_HEAD_FRAME" x="364" y="282" width="400" height="52" fill="none"/>
    <text id="ITEM_1_BODY" x="564.0" y="340.0" text-anchor="middle" font-size="19" fill="var(--primary-text)" data-bg-id="ITEM_1_TEXT_BG" style="font-size: 26px; font-family: Inter, Segoe UI, Kalam, Roboto, Helvetica, Arial, sans-serif; font-weight: 400;" data-final-font-size="26">
      <tspan x="564.0" dy="42.57px">Choosing easy targets fails to reveal</tspan>
      <tspan x="564.0" dy="29.90px">internal weaknesses</tspan>
    </text>
    <rect id="ITEM_1_BODY_FRAME" x="350" y="340" width="428" height="136" fill="none"/>
  </g>
  <g filter="url(#svg285016bf-soft-shadow)">
    <rect id="ITEM_2_BG" x="1070" y="230" width="700" height="300" rx="30" fill="var(--panel)" fill-opacity="0.97" stroke="var(--accent-2)" stroke-width="3"/>
    <rect x="1070" y="230" width="700" height="18" rx="9" fill="var(--accent-2)" fill-opacity="0.55"/>
    <rect x="1312" y="258" width="380" height="34" rx="17" fill="var(--accent-2)" fill-opacity="0.12"/>
    <circle id="ITEM_2_PAD" cx="1170" cy="322" r="52" fill="var(--icon-pad-bg)" opacity="0.95" fill-opacity="0.9" stroke-width="2" stroke="var(--primary-text)"/>
    <circle id="ITEM_2_PAD_INNER" cx="1170" cy="322" r="40.56" fill="var(--accent-3)" fill-opacity="0.22"/>
    <circle cx="1170" cy="322" r="42" fill="none" stroke="var(--accent-2)" stroke-width="3" stroke-dasharray="6 4"/>
    <g id="ITEM_2_ICON" transform="translate(1132, 284)" data-icon-size="76" stroke-dasharray="6 4">
      <g transform="translate(-8.354285714285716,-7.6300000000000034) scale(2.8971428571428572)">
        <path d="M25.0642 23.4047L23.9155 20.598L22.2011 21.2996L23.3511 24.1097L23.3525 24.113C23.5183 24.5137 23.3281 24.9545 22.9426 25.1096L18.0368 27.1219L18.0342 27.123C17.6335 27.2888 17.1927 27.0987 17.0376 26.7132L15.8855 23.898L14.1711 24.5997L15.3202 27.4074C15.8659 28.7594 17.403 29.3881 18.741 28.8353L18.7425 28.8347L23.6372 26.8268C24.9889 26.281 25.6173 24.7444 25.065 23.4066L25.0642 23.4047ZM8 23.5L9.70824 26.7789C10.3282 27.4289 10.2982 28.4589 9.63824 29.0689C8.98824 29.6789 7.95824 29.6489 7.34824 28.9989L2.43824 23.7889C1.82824 23.1389 1.85824 22.1089 2.50824 21.4989C3.15824 20.8889 4.18824 20.9189 4.79824 21.5689L8 23.5Z" fill="#FFB02E"/>
        <path d="M29.2283 15.0788L17.6783 2.82884C16.4083 1.47884 14.1783 1.82887 13.3883 3.50887L4.79834 21.5689L9.76834 26.8389L28.3083 19.3288C30.0183 18.6388 30.4983 16.4288 29.2283 15.0788Z" fill="#F9C23C"/>
      </g>
    </g>
    <rect id="ITEM_2_TEXT_BG" x="1250.0" y="266.0" width="468.0" height="226.0" rx="22" fill="var(--panel)" fill-opacity="0.94" stroke="var(--primary-text)" stroke-opacity="0.12" stroke-width="1.5"/>
    <rect id="COMPARISON_COLUMNS_ART_PANEL_SHEEN_2" x="1250.0" y="266.0" width="468.0" height="226.0" rx="16" fill="var(--accent-3)" opacity="0.82" fill-opacity="0.15" stroke="none"/>
    <text id="ITEM_2_HEAD" x="1484.0" y="282.0" text-anchor="middle" font-size="32" font-weight="800" fill="var(--primary-text)" data-bg-id="ITEM_2_TEXT_BG" fill-opacity="1.0" stroke="none" style="font-size: 30px; font-family: Inter, Segoe UI, Kalam, Roboto, Helvetica, Arial, sans-serif; font-weight: 700; letter-spacing:-0.4px;" data-final-font-size="30">
      <tspan x="1484.0" dy="40.49px">Motive Attacks</tspan>
    </text>
    <rect id="ITEM_2_HEAD_FRAME" x="1284" y="282" width="400" height="52" fill="none"/>
    <text id="ITEM_2_BODY" x="1484.0" y="340.0" text-anchor="middle" font-size="19" fill="var(--primary-text)" data-bg-id="ITEM_2_TEXT_BG" style="font-size: 26px; font-family: Inter, Segoe UI, Kalam, Roboto, Helvetica, Arial, sans-serif; font-weight: 400;" data-final-font-size="26">
      <tspan x="1484.0" dy="42.57px">Attacking motives is not a substitute</tspan>
      <tspan x="1484.0" dy="29.90px">for addressing evidence</tspan>
    </text>
    <rect id="ITEM_2_BODY_FRAME" x="1270" y="340" width="428" height="136" fill="none"/>
  </g>
  <g filter="url(#svg285016bf-soft-shadow)">
    <rect id="ITEM_3_BG" x="150" y="610" width="470" height="270" rx="26" fill="var(--panel)" fill-opacity="0.97" stroke="var(--accent-3)" stroke-width="3"/>
    <rect x="150" y="610" width="470" height="16" rx="8" fill="var(--accent-3)" fill-opacity="0.55"/>
    <rect x="280" y="646" width="260" height="26" rx="13" fill="var(--accent-3)" fill-opacity="0.12"/>
    <circle id="ITEM_3_PAD" cx="228" cy="692" r="46" fill="var(--icon-pad-bg)" opacity="0.95" fill-opacity="0.9" stroke-width="2" stroke="var(--primary-text)"/>
    <circle id="ITEM_3_PAD_INNER" cx="228" cy="692" r="35.88" fill="var(--accent-4)" fill-opacity="0.22"/>
    <circle cx="228" cy="692" r="37" fill="none" stroke="var(--accent-3)" stroke-width="3" stroke-dasharray="6 4"/>
    <g id="ITEM_3_ICON" transform="translate(194, 658)" data-icon-size="68" stroke-dasharray="6 4">
      <g transform="translate(-4.920677966101701,-4.920677966101698) scale(3.243389830508475)" vector-effect="non-scaling-stroke" stroke-width="2.53" stroke-linecap="round" stroke-linejoin="round" stroke-opacity="1.0">
        <path d="M4 19.5v-15A2.5 2.5 0 0 1 6.5 2H19a1 1 0 0 1 1 1v18a1 1 0 0 1-1 1H6.5a1 1 0 0 1 0-5H20" vector-effect="non-scaling-stroke" fill="none" stroke="#f1f5f9"/>
        <path d="m8 13 4-7 4 7" vector-effect="non-scaling-stroke" fill="none" stroke="#f1f5f9"/>
        <path d="M9.1 11h5.7" vector-effect="non-scaling-stroke" fill="none" stroke="#f1f5f9"/>
      </g>
    </g>
    <rect id="ITEM_3_TEXT_BG" x="294.0" y="690.0" width="300.0" height="186.0" rx="22" fill="var(--panel)" fill-opacity="0.94" stroke="var(--primary-text)" stroke-opacity="0.12" stroke-width="1.5"/>
    <rect id="COMPARISON_COLUMNS_ART_PANEL_SHEEN_3" x="294.0" y="690.0" width="300.0" height="186.0" rx="16" fill="var(--accent-4)" opacity="0.82" fill-opacity="0.15" stroke="none"/>
    <text id="ITEM_3_HEAD" x="444.0" y="706.0" text-anchor="middle" font-size="28" font-weight="800" fill="var(--primary-text)" data-bg-id="ITEM_3_TEXT_BG" fill-opacity="1.0" stroke="none" style="font-size: 30px; font-family: Inter, Segoe UI, Kalam, Roboto, Helvetica, Arial, sans-serif; font-weight: 700; letter-spacing:-0.4px;" data-final-font-size="30">
      <tspan x="444.0" dy="38.01px">Invented Claims</tspan>
    </text>
    <rect id="ITEM_3_HEAD_FRAME" x="310" y="706" width="268" height="48" fill="none"/>
    <text id="ITEM_3_BODY" x="444.0" y="754.0" text-anchor="middle" font-size="18" fill="var(--primary-text)" data-bg-id="ITEM_3_TEXT_BG" style="font-size: 26px; font-family: Inter, Segoe UI, Kalam, Roboto, Helvetica, Arial, sans-serif; font-weight: 400;" data-final-font-size="26">
      <tspan x="444.0" dy="31.63px">Adding claims the rival</tspan>
      <tspan x="444.0" dy="29.90px">never made weakens</tspan>
      <tspan x="444.0" dy="29.90px">the steelman</tspan>
    </text>
    <rect id="ITEM_3_BODY_FRAME" x="304" y="754" width="280" height="116" fill="none"/>
  </g>
  <g filter="url(#svg285016bf-soft-shadow)">
    <rect id="ITEM_4_BG" x="725" y="610" width="470" height="270" rx="26" fill="var(--panel)" fill-opacity="0.97" stroke="var(--accent-4)" stroke-width="3"/>
    <rect x="725" y="610" width="470" height="16" rx="8" fill="var(--accent-4)" fill-opacity="0.55"/>
    <rect x="855" y="646" width="260" height="26" rx="13" fill="var(--accent-4)" fill-opacity="0.12"/>
    <circle id="ITEM_4_PAD" cx="803" cy="692" r="46" fill="var(--icon-pad-bg)" opacity="0.95" fill-opacity="0.9" stroke-width="2" stroke="var(--primary-text)"/>
    <circle id="ITEM_4_PAD_INNER" cx="803" cy="692" r="35.88" fill="var(--accent-5)" fill-opacity="0.22"/>
    <circle cx="803" cy="692" r="37" fill="none" stroke="var(--accent-4)" stroke-width="3" stroke-dasharray="6 4"/>
    <g id="ITEM_4_ICON" transform="translate(769, 658)" data-icon-size="68" stroke-dasharray="6 4">
      <g transform="translate(-19.40279069767442,-19.402790697674423) scale(4.450232558139535)" vector-effect="non-scaling-stroke" fill="#f1f5f9" fill-opacity="1.0" stroke="none">
        <path fill="#f1f5f9" d="m16.2 10.7l.6-2.4c.1-.3.5-1.7-.3-2.9C15.9 4.5 14.7 4 13 4h-2c-1.7 0-2.9.5-3.5 1.4c-.8 1.2-.4 2.5-.3 2.9l.6 2.4C6.7 11.8 6 13.3 6 15c0 2.1 1.1 3.9 2.7 5h6.6c1.6-1.1 2.7-2.9 2.7-5c0-1.7-.7-3.2-1.8-4.3M9.6 9.5l-.5-1.7v-.1s-.2-.7.1-1.1Q9.5 6 11 6h2c.9 0 1.6.2 1.9.5c.3.4.1 1.1.1 1.1l-.5 1.9c-.8-.3-1.6-.5-2.5-.5s-1.7.2-2.4.5" vector-effect="non-scaling-stroke" stroke="none"/>
      </g>
    </g>
    <rect id="ITEM_4_TEXT_BG" x="869.0" y="690.0" width="300.0" height="186.0" rx="22" fill="var(--panel)" fill-opacity="0.94" stroke="var(--primary-text)" stroke-opacity="0.12" stroke-width="1.5"/>
    <rect id="COMPARISON_COLUMNS_ART_PANEL_SHEEN_4" x="869.0" y="690.0" width="300.0" height="186.0" rx="16" fill="var(--accent-5)" opacity="0.82" fill-opacity="0.15" stroke="none"/>
    <text id="ITEM_4_HEAD" x="1019.0" y="706.0" text-anchor="middle" font-size="28" font-weight="800" fill="var(--primary-text)" data-bg-id="ITEM_4_TEXT_BG" fill-opacity="1.0" stroke="none" style="font-size: 30px; font-family: Inter, Segoe UI, Kalam, Roboto, Helvetica, Arial, sans-serif; font-weight: 700; letter-spacing:-0.4px;" data-final-font-size="30">
      <tspan x="1019.0" dy="38.01px">False Balance</tspan>
    </text>
    <rect id="ITEM_4_HEAD_FRAME" x="885" y="706" width="268" height="48" fill="none"/>
    <text id="ITEM_4_BODY" x="1019.0" y="754.0" text-anchor="middle" font-size="18" fill="var(--primary-text)" data-bg-id="ITEM_4_TEXT_BG" style="font-size: 26px; font-family: Inter, Segoe UI, Kalam, Roboto, Helvetica, Arial, sans-serif; font-weight: 400;" data-final-font-size="26">
      <tspan x="1019.0" dy="31.63px">Treating all conclusions</tspan>
      <tspan x="1019.0" dy="29.90px">as equally well supported</tspan>
      <tspan x="1019.0" dy="29.90px">is inaccurate</tspan>
    </text>
    <rect id="ITEM_4_BODY_FRAME" x="879" y="754" width="280" height="116" fill="none"/>
  </g>
  <g filter="url(#svg285016bf-soft-shadow)">
    <rect id="ITEM_5_BG" x="1300" y="610" width="470" height="270" rx="26" fill="var(--panel)" fill-opacity="0.97" stroke="var(--accent-5)" stroke-width="3"/>
    <rect x="1300" y="610" width="470" height="16" rx="8" fill="var(--accent-5)" fill-opacity="0.55"/>
    <rect x="1430" y="646" width="260" height="26" rx="13" fill="var(--accent-5)" fill-opacity="0.12"/>
    <circle id="ITEM_5_PAD" cx="1378" cy="692" r="46" fill="var(--icon-pad-bg)" opacity="0.95" fill-opacity="0.9" stroke-width="2" stroke="var(--primary-text)"/>
    <circle id="ITEM_5_PAD_INNER" cx="1378" cy="692" r="35.88" fill="var(--accent-6)" fill-opacity="0.22"/>
    <circle cx="1378" cy="692" r="37" fill="none" stroke="var(--accent-5)" stroke-width="3" stroke-dasharray="6 4"/>
    <g id="ITEM_5_ICON" transform="translate(1344, 658)" data-icon-size="68" stroke-dasharray="6 4">
      <g transform="translate(-4.920677966101698,-4.920677966101698) scale(3.243389830508475)" vector-effect="non-scaling-stroke" stroke-width="2.53" stroke-linecap="round" stroke-linejoin="round" stroke-opacity="1.0">
        <path d="M12 6v6l4 2" vector-effect="non-scaling-stroke" fill="none" stroke="#f1f5f9"/>
        <circle cx="12" cy="12" r="10" vector-effect="non-scaling-stroke" fill="none" stroke="#f1f5f9"/>
      </g>
    </g>
    <rect id="ITEM_5_TEXT_BG" x="1444.0" y="690.0" width="300.0" height="186.0" rx="22" fill="var(--panel)" fill-opacity="0.94" stroke="var(--primary-text)" stroke-opacity="0.12" stroke-width="1.5"/>
    <rect id="COMPARISON_COLUMNS_ART_PANEL_SHEEN_5" x="1444.0" y="690.0" width="300.0" height="186.0" rx="16" fill="var(--accent-6)" opacity="0.82" fill-opacity="0.15" stroke="none"/>
    <text id="ITEM_5_HEAD" x="1594.0" y="706.0" text-anchor="middle" font-size="28" font-weight="800" fill="var(--primary-text)" data-bg-id="ITEM_5_TEXT_BG" fill-opacity="1.0" stroke="none" style="font-size: 30px; font-family: Inter, Segoe UI, Kalam, Roboto, Helvetica, Arial, sans-serif; font-weight: 700; letter-spacing:-0.4px;" data-final-font-size="30">
      <tspan x="1594.0" dy="38.01px">Incomplete Exercise</tspan>
    </text>
    <rect id="ITEM_5_HEAD_FRAME" x="1460" y="706" width="268" height="48" fill="none"/>
    <text id="ITEM_5_BODY" x="1594.0" y="754.0" text-anchor="middle" font-size="18" fill="var(--primary-text)" data-bg-id="ITEM_5_TEXT_BG" style="font-size: 26px; font-family: Inter, Segoe UI, Kalam, Roboto, Helvetica, Arial, sans-serif; font-weight: 400;" data-final-font-size="26">
      <tspan x="1594.0" dy="31.63px">Describing the rival view</tspan>
      <tspan x="1594.0" dy="29.90px">without a change</tspan>
      <tspan x="1594.0" dy="29.90px">condition is unfinished</tspan>
    </text>
    <rect id="ITEM_5_BODY_FRAME" x="1454" y="754" width="280" height="116" fill="none"/>
  </g>
</svg>
