<?xml version='1.0' encoding='utf-8'?>
<svg xmlns="http://www.w3.org/2000/svg" width="1920" height="1080" viewBox="0 0 1920 1080" data-theme="light">
  <style>
        @font-face {
            font-family: 'Inter';
            src: url('assets/fonts/Inter-Regular.ttf') format('truetype');
            font-weight: 400;
            font-style: normal;
            font-display: swap;
        }
        @font-face {
            font-family: 'Inter';
            src: url('assets/fonts/Inter-Bold.ttf') format('truetype');
            font-weight: 600;
            font-style: normal;
            font-display: swap;
        }
        @font-face {
            font-family: 'Inter';
            src: url('assets/fonts/Inter-Bold.ttf') format('truetype');
            font-weight: 800;
            font-style: normal;
            font-display: swap;
        }
        
:root {
    --background: #f8fafc;
    --panel: #ffffff;
    --primary-text: #0f172a;
    --muted-text: #64748b;
    --inverse-text: #ffffff;
    --border: #e2e8f0;
    --shadow-color: #000000;
    --icon-pad-bg: #1e293b;
    --art-glow: #0891b2;
    --art-glow-opacity: 0.10;
    --art-sheen: #ffffff;
    --art-sheen-opacity: 0.34;
    --art-shadow: #0f172a;
    --art-shadow-opacity: 0.14;
    --art-muted-line: #94a3b8;
    --art-panel-tint: #f1f5f9;
    --font-family: 'Inter', 'Segoe UI', 'Kalam', Roboto, Helvetica, Arial, sans-serif;
    --radius-xl: 16px;
    --font-family-headline: 'Inter', 'Segoe UI', 'Kalam', Roboto, Helvetica, Arial, sans-serif;
    --font-family-body: 'Inter', 'Segoe UI', 'Kalam', Roboto, Helvetica, Arial, sans-serif;
    --font-heading: 'Inter', 'Segoe UI', 'Kalam', Roboto, Helvetica, Arial, sans-serif;
    --font-body: 'Inter', 'Segoe UI', 'Kalam', Roboto, Helvetica, Arial, sans-serif;
    --font-size-h1: 56px;
    --font-size-h2: 40px;
    --font-size-h3: 28px;
    --font-size-body: 24px;
    --font-size-caption: 18px;
    --secondary-text: var(--muted-text);
    --panel-border: var(--border);
    --font-weight-normal: 400;
    --font-weight-medium: 500;
    --font-weight-semibold: 600;
    --font-weight-bold: 700;
    --spacing-gutter-pct: 0.07;
    --spacing-top-pct: 0.15;
    --spacing-bottom-pct: 0.07;
    --spacing-title-y-pct: 0.055;
    --accent-1: #2563eb;
    --accent-2: #16a34a;
    --accent-3: #ea580c;
    --accent-4: #7c3aed;
    --accent-5: #0284c7;
    --accent-6: #475569;
}
:root[data-theme="dark"] {
    --background: #0f172a;
    --panel: #1e293b;
    --primary-text: #f1f5f9;
    --muted-text: #94a3b8;
    --inverse-text: #0f172a;
    --border: #334155;
    --shadow-color: #000000;
    --icon-pad-bg: #1e293b;
    --art-glow: #7dd3fc;
    --art-glow-opacity: 0.18;
    --art-sheen: #ffffff;
    --art-sheen-opacity: 0.18;
    --art-shadow: #000000;
    --art-shadow-opacity: 0.28;
    --art-muted-line: #64748b;
    --art-panel-tint: #1e293b;
    --accent-1: #60a5fa;
    --accent-2: #4ade80;
    --accent-3: #f97316;
    --accent-4: #a78bfa;
    --accent-5: #38bdf8;
    --accent-6: #94a3b8;
}
:root[data-theme="light"] {
    --background: #f8fafc;
    --panel: #ffffff;
    --primary-text: #0f172a;
    --muted-text: #64748b;
    --inverse-text: #ffffff;
    --border: #e2e8f0;
    --shadow-color: #000000;
    --icon-pad-bg: #1e293b;
    --art-glow: #0891b2;
    --art-glow-opacity: 0.10;
    --art-sheen: #ffffff;
    --art-sheen-opacity: 0.34;
    --art-shadow: #0f172a;
    --art-shadow-opacity: 0.14;
    --art-muted-line: #94a3b8;
    --art-panel-tint: #f1f5f9;
    --accent-1: #2563eb;
    --accent-2: #16a34a;
    --accent-3: #ea580c;
    --accent-4: #7c3aed;
    --accent-5: #0284c7;
    --accent-6: #475569;
}</style>
  <rect x="0" y="0" width="1.92E+3" height="1.08E+3" fill="#252a34" stroke="none" id="programmatic_background"/>
  <line id="HEADER_DECOR" x1="960.0" x2="1080.0" y1="123.0" y2="123.0" stroke="var(--accent-1)" stroke-width="6" stroke-linecap="round"/>
  <defs>
    <pattern id="svga359d01d-napkin-hatch" patternUnits="userSpaceOnUse" width="12" height="12">
      <path d="M -3 12 L 12 -3 M 0 15 L 15 0" fill="none" stroke="var(--primary-text)" stroke-width="1" stroke-opacity="0.05"/>
    </pattern>
    <filter id="svga359d01d-shadow" x="-30%" y="-30%" width="160%" height="160%">
      <feDropShadow dx="0" dy="3" stdDeviation="6" flood-color="#000000" flood-opacity="0.10"/>
      <feDropShadow dx="0" dy="8" stdDeviation="12" flood-color="#000000" flood-opacity="0.16"/>
    </filter>
    <radialGradient id="svga359d01d-universal-edge-vignette" cx="50%" cy="50%" r="72%">
      <stop offset="0%" stop-color="var(--background)" stop-opacity="0"/>
      <stop offset="72%" stop-color="var(--background)" stop-opacity="0.12"/>
      <stop offset="100%" stop-color="var(--primary-text)" stop-opacity="0.08"/>
    </radialGradient>
    <linearGradient id="svga359d01d-universal-surface-sheen" x1="0%" y1="0%" x2="100%" y2="100%">
      <stop offset="0%" stop-color="var(--art-sheen)" stop-opacity="var(--art-sheen-opacity)"/>
      <stop offset="46%" stop-color="var(--art-sheen)" stop-opacity="0.035"/>
      <stop offset="100%" stop-color="var(--art-panel-tint)" stop-opacity="0.14"/>
    </linearGradient>
    <radialGradient id="svga359d01d-universal-icon-aura" cx="50%" cy="42%" r="64%">
      <stop offset="0%" stop-color="var(--art-glow)" stop-opacity="var(--art-glow-opacity)"/>
      <stop offset="100%" stop-color="var(--background)" stop-opacity="0"/>
    </radialGradient>
    <filter id="svga359d01d-text-glow" x="-20%" y="-20%" width="140%" height="140%">
      <feDropShadow dx="0" dy="0" stdDeviation="2" flood-color="#000000" flood-opacity="0.4"/>
    </filter>
    <marker id="svga359d01d-arrowhead" markerWidth="10" markerHeight="7" refX="9" refY="3.5" orient="auto" markerUnits="strokeWidth">
      <polygon points="0 0, 10 3.5, 0 7" fill="var(--muted-text)" opacity="0.6"/>
    </marker>
  </defs>
  <rect width="100%" height="100%" fill="var(--background)" id="CANVAS_BG"/>
  <rect width="100%" height="100%" fill="url(#svga359d01d-napkin-hatch)"/>
  <rect id="UNIVERSAL_EDGE_VIGNETTE" width="100%" height="100%" fill="url(#svga359d01d-universal-edge-vignette)" opacity="0.62"/>
  <text id="TITLE" x="960.0" y="59" text-anchor="middle" font-size="58" font-weight="800" fill="#0f172a" style="font-size: 60px; font-family: Inter, Segoe UI, Kalam, Roboto, Helvetica, Arial, sans-serif; font-weight: 700; letter-spacing:-1.2px;" data-final-font-size="60">
    <tspan x="960.0" dy="68.00px">Planning Durable Knowledge Strategy</tspan>
  </text>
  <rect id="TITLE_FRAME" x="134" y="57" width="1652" height="98" fill="none"/>
  <rect x="140" y="150" width="1640" height="850" rx="40" fill="var(--panel)" fill-opacity="0.24" stroke="var(--muted-text)" stroke-width="2.4" opacity="0.96"/>
  <line x1="960" y1="220" x2="960" y2="940" stroke="var(--muted-text)" stroke-width="14" stroke-linecap="round" opacity="0.18"/>
  <line x1="960" y1="220" x2="960" y2="940" stroke="var(--border)" stroke-width="4" stroke-linecap="round" opacity="0.88"/>
  <g id="DIAGRAM_MAIN">
    <g filter="url(#svga359d01d-shadow)">
      <line x1="934" y1="255.0" x2="604.0" y2="255.0" stroke="var(--accent-1)" stroke-width="3.5" opacity="0.84"/>
      <circle cx="960" cy="255.0" r="20" fill="var(--background)" stroke="var(--accent-1)" stroke-width="3.2"/>
      <text x="960" y="261.0" text-anchor="middle" font-size="14" font-weight="800" fill="var(--primary-text)">1</text>
      <rect id="ITEM_1_BG" x="170" y="177.0" width="470" height="156" rx="22" fill="var(--panel)" fill-opacity="0.97" stroke="var(--accent-1)" stroke-width="3.2"/>
      <rect x="170" y="177.0" width="470" height="16" rx="8" fill="var(--accent-1)" fill-opacity="0.55"/>
      <circle id="ITEM_1_PAD" cx="568.0" cy="255.0" r="40" fill="var(--icon-pad-bg)" opacity="0.95" fill-opacity="0.9" stroke-width="2" stroke="var(--primary-text)"/>
      <circle id="ITEM_1_PAD_INNER" cx="568.0" cy="255.0" r="31.20" fill="var(--accent-5)" fill-opacity="0.22"/>
      <circle cx="568.0" cy="255.0" r="32" fill="none" stroke="var(--accent-1)" stroke-width="3" stroke-dasharray="6 4"/>
      <g id="ITEM_1_ICON" transform="translate(538.0, 225.0)" data-icon-size="60" stroke-dasharray="6 4">
        <g transform="translate(-5.65714285714286,-5.65714285714286) scale(2.2285714285714286)">
          <path d="M14 28.2921C19.6841 28.2921 24.292 23.6842 24.292 18C24.292 12.3159 19.6841 7.70801 14 7.70801C8.31585 7.70801 3.70795 12.3159 3.70795 18C3.70795 23.6842 8.31585 28.2921 14 28.2921Z" fill="#F4F4F4"/>
          <path d="M26 18C26 11.3726 20.6274 6 14 6C7.37258 6 2 11.3726 2 18C2 24.6274 7.37258 30 14 30C20.6274 30 26 24.6274 26 18ZM23 18C23 22.9705 18.9706 27 14 27C9.02944 27 5 22.9705 5 18C5 13.0294 9.02944 9 14 9C18.9706 9 23 13.0294 23 18ZM14 24C10.6863 24 8 21.3137 8 18C8 14.6863 10.6863 12 14 12C17.3137 12 20 14.6863 20 18C20 21.3137 17.3137 24 14 24ZM17 18C17 16.3432 15.6569 15 14 15C12.3431 15 11 16.3432 11 18C11 19.6568 12.3431 21 14 21C15.6569 21 17 19.6568 17 18Z" fill="#F8312F"/>
          <path d="M14.2505 17.742C14.595 18.086 15.1379 18.086 15.4824 17.742L19.7416 13.4883C20.0861 13.1442 20.0861 12.6021 19.7416 12.258C19.3971 11.914 18.8543 11.914 18.5098 12.258L14.2505 16.5117C13.9165 16.8558 13.9165 17.3979 14.2505 17.742Z" fill="#9B9B9B"/>
          <path d="M19.6577 10.093L19.2077 8.50301C18.6677 6.60301 19.1977 4.55298 20.5977 3.16298L21.4877 2.273C21.9777 1.773 22.8177 1.99298 23.0077 2.66298L24 6L19.6577 10.093ZM22 12.3299L23.5717 12.7884C25.4499 13.3385 27.4763 12.7986 28.8504 11.3722L29.7301 10.4655C30.2244 9.96628 30.0069 9.11049 29.3446 8.91692L26 8L22 12.3299Z" fill="#46A4FB"/>
          <path d="M15.8499 16.1517C17.0736 17.3745 19.0777 17.2589 20.1569 15.9111L25.5815 9.1139C26.1886 8.35332 26.1307 7.25576 25.437 6.56257C24.7433 5.86938 23.6448 5.81159 22.8836 6.41813L16.0811 11.8385C14.7418 12.9265 14.6262 14.929 15.8499 16.1517Z" fill="#50E2FF"/>
          <path d="M21.258 10.742C21.6021 11.086 22.1442 11.086 22.4883 10.742L26.742 6.48829C27.086 6.14424 27.086 5.60208 26.742 5.25804C26.3979 4.91399 25.8558 4.91399 25.5117 5.25804L21.258 9.51174C20.914 9.85579 20.914 10.4083 21.258 10.742Z" fill="#46A4FB"/>
        </g>
      </g>
      <text id="ITEM_1_HEAD" x="346.0" y="195.0" text-anchor="middle" font-weight="800" font-size="24" fill="var(--primary-text)" data-bg-id="ITEM_1_BG" fill-opacity="1.0" style="font-size: 30px; font-family: Inter, Segoe UI, Kalam, Roboto, Helvetica, Arial, sans-serif; font-weight: 700; letter-spacing:-0.4px;" data-final-font-size="30">
        <tspan x="346.0" dy="29.33px">Define Goal</tspan>
      </text>
      <rect id="ITEM_1_HEAD_FRAME" x="206.0" y="195.0" width="280" height="34" fill="none"/>
      <text id="ITEM_1_BODY" x="362.0" y="235.0" text-anchor="middle" font-size="18" fill="var(--primary-text)" data-bg-id="ITEM_1_BG" style="font-size: 25px; font-family: Inter, Segoe UI, Kalam, Roboto, Helvetica, Arial, sans-serif; font-weight: 400;" data-final-font-size="25">
        <tspan x="362.0" dy="25.86px">Identify the specific date</tspan>
        <tspan x="362.0" dy="28.75px">knowledge is required</tspan>
      </text>
      <rect id="ITEM_1_BODY_FRAME" x="202.0" y="235.0" width="320" height="70" fill="none"/>
    </g>
    <g filter="url(#svga359d01d-shadow)">
      <line x1="986" y1="417.5" x2="1316.0" y2="417.5" stroke="var(--accent-2)" stroke-width="3.5" opacity="0.84"/>
      <circle cx="960" cy="417.5" r="20" fill="var(--background)" stroke="var(--accent-2)" stroke-width="3.2"/>
      <text x="960" y="423.5" text-anchor="middle" font-size="14" font-weight="800" fill="var(--primary-text)">2</text>
      <rect id="ITEM_2_BG" x="1280" y="339.5" width="470" height="156" rx="22" fill="var(--panel)" fill-opacity="0.97" stroke="var(--accent-2)" stroke-width="3.2"/>
      <rect x="1280" y="339.5" width="470" height="16" rx="8" fill="var(--accent-2)" fill-opacity="0.55"/>
      <circle id="ITEM_2_PAD" cx="1352.0" cy="417.5" r="40" fill="var(--icon-pad-bg)" opacity="0.95" fill-opacity="0.9" stroke-width="2" stroke="var(--primary-text)"/>
      <circle id="ITEM_2_PAD_INNER" cx="1352.0" cy="417.5" r="31.20" fill="var(--accent-6)" fill-opacity="0.22"/>
      <circle cx="1352.0" cy="417.5" r="32" fill="none" stroke="var(--accent-2)" stroke-width="3" stroke-dasharray="6 4"/>
      <g id="ITEM_2_ICON" transform="translate(1322.0, 387.5)" data-icon-size="60" stroke-dasharray="6 4">
        <g transform="translate(-3.844067796610176,-3.844067796610173) scale(2.820338983050848)" vector-effect="non-scaling-stroke" stroke-width="2.43" stroke-linecap="round" stroke-linejoin="round" stroke-opacity="1.0">
          <rect width="16" height="20" x="4" y="2" rx="2" vector-effect="non-scaling-stroke" fill="none" stroke="#f1f5f9"/>
          <line x1="8" x2="16" y1="6" y2="6" vector-effect="non-scaling-stroke" fill="none" stroke="#f1f5f9"/>
          <line x1="16" x2="16" y1="14" y2="18" vector-effect="non-scaling-stroke" fill="none" stroke="#f1f5f9"/>
          <path d="M16 10h.01" vector-effect="non-scaling-stroke" fill="none" stroke="#f1f5f9"/>
          <path d="M12 10h.01" vector-effect="non-scaling-stroke" fill="none" stroke="#f1f5f9"/>
          <path d="M8 10h.01" vector-effect="non-scaling-stroke" fill="none" stroke="#f1f5f9"/>
          <path d="M12 14h.01" vector-effect="non-scaling-stroke" fill="none" stroke="#f1f5f9"/>
          <path d="M8 14h.01" vector-effect="non-scaling-stroke" fill="none" stroke="#f1f5f9"/>
          <path d="M12 18h.01" vector-effect="non-scaling-stroke" fill="none" stroke="#f1f5f9"/>
          <path d="M8 18h.01" vector-effect="non-scaling-stroke" fill="none" stroke="#f1f5f9"/>
        </g>
      </g>
      <text id="ITEM_2_HEAD" x="1570.0" y="357.5" text-anchor="middle" font-weight="800" font-size="24" fill="var(--accent-6)" data-bg-id="ITEM_2_BG" fill-opacity="1.0" style="font-size: 30px; font-family: Inter, Segoe UI, Kalam, Roboto, Helvetica, Arial, sans-serif; font-weight: 700; letter-spacing:-0.4px;" data-final-font-size="30">
        <tspan x="1570.0" dy="29.33px">Calculate Gap</tspan>
      </text>
      <rect id="ITEM_2_HEAD_FRAME" x="1430.0" y="357.5" width="280" height="34" fill="none"/>
      <text id="ITEM_2_BODY" x="1580.0" y="397.5" text-anchor="middle" font-size="18" fill="var(--primary-text)" data-bg-id="ITEM_2_BG" style="font-size: 25px; font-family: Inter, Segoe UI, Kalam, Roboto, Helvetica, Arial, sans-serif; font-weight: 400;" data-final-font-size="25">
        <tspan x="1580.0" dy="20.11px">Determine the spacing</tspan>
        <tspan x="1580.0" dy="28.75px">based on retention</tspan>
        <tspan x="1580.0" dy="28.75px">percentage</tspan>
      </text>
      <rect id="ITEM_2_BODY_FRAME" x="1420.0" y="397.5" width="320" height="70" fill="none"/>
    </g>
    <g filter="url(#svga359d01d-shadow)">
      <line x1="934" y1="580.0" x2="604.0" y2="580.0" stroke="var(--accent-3)" stroke-width="3.5" opacity="0.84"/>
      <circle cx="960" cy="580.0" r="20" fill="var(--background)" stroke="var(--accent-3)" stroke-width="3.2"/>
      <text x="960" y="586.0" text-anchor="middle" font-size="14" font-weight="800" fill="var(--primary-text)">3</text>
      <rect id="ITEM_3_BG" x="170" y="502.0" width="470" height="156" rx="22" fill="var(--panel)" fill-opacity="0.97" stroke="var(--accent-3)" stroke-width="3.2"/>
      <rect x="170" y="502.0" width="470" height="16" rx="8" fill="var(--accent-3)" fill-opacity="0.55"/>
      <circle id="ITEM_3_PAD" cx="568.0" cy="580.0" r="40" fill="var(--icon-pad-bg)" opacity="0.95" fill-opacity="0.9" stroke-width="2" stroke="var(--primary-text)"/>
      <circle id="ITEM_3_PAD_INNER" cx="568.0" cy="580.0" r="31.20" fill="var(--accent-1)" fill-opacity="0.22"/>
      <circle cx="568.0" cy="580.0" r="32" fill="none" stroke="var(--accent-3)" stroke-width="3" stroke-dasharray="6 4"/>
      <g id="ITEM_3_ICON" transform="translate(538.0, 550.0)" data-icon-size="60" stroke-dasharray="6 4">
        <g transform="translate(-5.65714285714286,-5.65714285714286) scale(2.2285714285714286)">
          <path d="M16.2483 4.52616C18.9098 1.83682 23.1163 1.14182 26.2861 3.18653C30.7219 6.03703 31.1805 12.1208 27.6817 15.6562C25.3721 17.9958 21.9577 18.5834 19.0921 17.421C17.6761 18.8362 15.9246 20.5894 15.5 21.0254C15.29 21.2354 14.92 21.3454 14.58 21.2454C14.17 21.1254 13.74 21.1254 13.28 21.2754C12.75 21.4554 12.39 22.0854 12.41 22.3755C12.45 23.0054 12.35 23.2754 12.07 23.5654C11.7883 23.861 11.4895 23.8921 11.1766 23.9247C10.812 23.9626 10.4282 24.0026 10.03 24.4655C9.62999 24.9354 9.55999 25.6454 9.69999 26.1754C9.77999 26.4854 9.67999 26.8554 9.39999 27.1354C8.89999 27.6354 7.54046 28.975 7.54046 28.975C6.51046 30.005 4.89046 30.315 3.63046 29.585C1.72046 28.485 1.49046 25.975 2.93046 24.535L14.6195 12.8546C14.5156 12.6025 14.4204 12.3411 14.3345 12.0704C13.4872 9.4113 14.2946 6.50036 16.2483 4.52616ZM23.8838 5.82551C23.1661 6.55073 23.1661 7.73927 23.8838 8.46449C24.6115 9.18971 25.7778 9.18971 26.4955 8.46449C27.2132 7.73927 27.2132 6.55073 26.4955 5.82551C25.7778 5.10029 24.6015 5.10029 23.8838 5.82551Z" fill="#F9C23C"/>
        </g>
      </g>
      <text id="ITEM_3_HEAD" x="346.0" y="520.0" text-anchor="middle" font-weight="800" font-size="24" fill="var(--accent-1)" data-bg-id="ITEM_3_BG" fill-opacity="1.0" style="font-size: 30px; font-family: Inter, Segoe UI, Kalam, Roboto, Helvetica, Arial, sans-serif; font-weight: 700; letter-spacing:-0.4px;" data-final-font-size="30">
        <tspan x="346.0" dy="29.33px">Execute Review</tspan>
      </text>
      <rect id="ITEM_3_HEAD_FRAME" x="206.0" y="520.0" width="280" height="34" fill="none"/>
      <text id="ITEM_3_BODY" x="362.0" y="560.0" text-anchor="middle" font-size="18" fill="var(--primary-text)" data-bg-id="ITEM_3_BG" style="font-size: 26px; font-family: Inter, Segoe UI, Kalam, Roboto, Helvetica, Arial, sans-serif; font-weight: 400;" data-final-font-size="26">
        <tspan x="362.0" dy="26.20px">Perform retrieval at the</tspan>
        <tspan x="362.0" dy="29.90px">calculated optimal point</tspan>
      </text>
      <rect id="ITEM_3_BODY_FRAME" x="202.0" y="560.0" width="320" height="70" fill="none"/>
    </g>
    <g filter="url(#svga359d01d-shadow)">
      <line x1="986" y1="742.5" x2="1316.0" y2="742.5" stroke="var(--accent-4)" stroke-width="3.5" opacity="0.84"/>
      <circle cx="960" cy="742.5" r="20" fill="var(--background)" stroke="var(--accent-4)" stroke-width="3.2"/>
      <text x="960" y="748.5" text-anchor="middle" font-size="14" font-weight="800" fill="var(--primary-text)">4</text>
      <rect id="ITEM_4_BG" x="1280" y="664.5" width="470" height="156" rx="22" fill="var(--panel)" fill-opacity="0.97" stroke="var(--accent-4)" stroke-width="3.2"/>
      <rect x="1280" y="664.5" width="470" height="16" rx="8" fill="var(--accent-4)" fill-opacity="0.55"/>
      <circle id="ITEM_4_PAD" cx="1352.0" cy="742.5" r="40" fill="var(--icon-pad-bg)" opacity="0.95" fill-opacity="0.9" stroke-width="2" stroke="var(--primary-text)"/>
      <circle id="ITEM_4_PAD_INNER" cx="1352.0" cy="742.5" r="31.20" fill="var(--accent-2)" fill-opacity="0.22"/>
      <circle cx="1352.0" cy="742.5" r="32" fill="none" stroke="var(--accent-4)" stroke-width="3" stroke-dasharray="6 4"/>
      <g id="ITEM_4_ICON" transform="translate(1322.0, 712.5)" data-icon-size="60" stroke-dasharray="6 4">
        <g transform="translate(-5.65714285714286,-5.65714285714286) scale(2.2285714285714286)">
          <path d="M13.9722 3.06962L7.11285 29.0903C6.97408 29.6301 6.48837 30 5.9432 30H2.85056C2.28556 30 1.88907 29.4702 2.02784 28.9304L8.88715 2.90968C9.02592 2.37986 9.51163 2 10.0667 2H13.1494C13.7144 2 14.1109 2.52981 13.9722 3.06962Z" fill="#7D4533"/>
          <path d="M29.9726 3.06962L23.1187 29.0903C22.9702 29.6301 22.4947 30 21.9401 30H18.8499C18.2853 30 17.8892 29.4702 18.0278 28.9304L18.27 28.0109L17.3715 26.4623L19.0645 24.9947L20.1199 20.9878L19.2154 19.4619L20.9024 18.017L21.9639 13.9871L21.0599 12.4594L22.7474 11.0127L23.8146 6.9612L22.908 5.44292L24.593 4.0057L24.8817 2.90968C25.0204 2.37986 25.5057 2 26.0604 2H29.1506C29.7052 2 30.1113 2.52981 29.9726 3.06962Z" fill="#7D4533"/>
          <path d="M19.0631 25L18.2729 28H5.54632C5.1809 28 4.91163 27.6288 5.02703 27.2575L5.56556 25.4615C5.65211 25.1806 5.89252 25 6.1714 25H19.0631Z" fill="#A56953"/>
          <path d="M20.9069 18L20.1167 21H7.08312C6.69308 21 6.40568 20.6288 6.52885 20.2575L7.10365 18.4615C7.19603 18.1806 7.45263 18 7.7503 18H20.9069Z" fill="#A56953"/>
          <path d="M23.8043 7L24.5945 4H11.24C10.9424 4 10.6858 4.18 10.5934 4.46L10.0289 6.26C9.90568 6.63 10.1931 7 10.5831 7H23.8043Z" fill="#A56953"/>
          <path d="M22.7507 11H9.2503C8.95263 11 8.69603 11.1806 8.60365 11.4615L8.02885 13.2575C7.90568 13.6288 8.19308 14 8.58312 14H21.9605L22.7507 11Z" fill="#A56953"/>
        </g>
      </g>
      <text id="ITEM_4_HEAD" x="1570.0" y="682.5" text-anchor="middle" font-weight="800" font-size="24" fill="var(--primary-text)" data-bg-id="ITEM_4_BG" fill-opacity="1.0" style="font-size: 30px; font-family: Inter, Segoe UI, Kalam, Roboto, Helvetica, Arial, sans-serif; font-weight: 700; letter-spacing:-0.4px;" data-final-font-size="30">
        <tspan x="1570.0" dy="29.33px">Adjust Schedule</tspan>
      </text>
      <rect id="ITEM_4_HEAD_FRAME" x="1430.0" y="682.5" width="280" height="34" fill="none"/>
      <text id="ITEM_4_BODY" x="1580.0" y="722.5" text-anchor="middle" font-size="18" fill="var(--primary-text)" data-bg-id="ITEM_4_BG" style="font-size: 26px; font-family: Inter, Segoe UI, Kalam, Roboto, Helvetica, Arial, sans-serif; font-weight: 400;" data-final-font-size="26">
        <tspan x="1580.0" dy="26.20px">Increase intervals as the</tspan>
        <tspan x="1580.0" dy="29.90px">material becomes familiar</tspan>
      </text>
      <rect id="ITEM_4_BODY_FRAME" x="1420.0" y="722.5" width="320" height="70" fill="none"/>
    </g>
    <g filter="url(#svga359d01d-shadow)">
      <line x1="934" y1="905.0" x2="604.0" y2="905.0" stroke="var(--accent-5)" stroke-width="3.5" opacity="0.84"/>
      <circle cx="960" cy="905.0" r="20" fill="var(--background)" stroke="var(--accent-5)" stroke-width="3.2"/>
      <text x="960" y="911.0" text-anchor="middle" font-size="14" font-weight="800" fill="var(--primary-text)">5</text>
      <rect id="ITEM_5_BG" x="170" y="827.0" width="470" height="156" rx="22" fill="var(--panel)" fill-opacity="0.97" stroke="var(--accent-5)" stroke-width="3.2"/>
      <rect x="170" y="827.0" width="470" height="16" rx="8" fill="var(--accent-5)" fill-opacity="0.55"/>
      <circle id="ITEM_5_PAD" cx="568.0" cy="905.0" r="40" fill="var(--icon-pad-bg)" opacity="0.95" fill-opacity="0.9" stroke-width="2" stroke="var(--primary-text)"/>
      <circle id="ITEM_5_PAD_INNER" cx="568.0" cy="905.0" r="31.20" fill="var(--accent-3)" fill-opacity="0.22"/>
      <circle cx="568.0" cy="905.0" r="32" fill="none" stroke="var(--accent-5)" stroke-width="3" stroke-dasharray="6 4"/>
      <g id="ITEM_5_ICON" transform="translate(538.0, 875.0)" data-icon-size="60" stroke-dasharray="6 4">
        <g transform="translate(-1.2000000000000028,-1.2000000000000028) scale(4.457142857142857)" vector-effect="non-scaling-stroke" stroke-width="2.43" stroke-linecap="round" stroke-linejoin="round" stroke-opacity="1.0">
          <path id="Vector" fill="none" d="M6 11.5a5.5 5.5 0 1 0 0 -11 5.5 5.5 0 0 0 0 11Z" vector-effect="non-scaling-stroke" stroke="#f1f5f9"/>
          <path id="Vector_2" stroke="#f1f5f9" d="M6 11.5a5.5 5.5 0 1 0 0 -11 5.5 5.5 0 0 0 0 11Z" vector-effect="non-scaling-stroke" fill="none"/>
          <path id="Vector_3" stroke="#f1f5f9" d="M13.5 13.5 10 10" vector-effect="non-scaling-stroke" fill="none"/>
        </g>
      </g>
      <text id="ITEM_5_HEAD" x="346.0" y="845.0" text-anchor="middle" font-weight="800" font-size="24" fill="var(--primary-text)" data-bg-id="ITEM_5_BG" fill-opacity="1.0" style="font-size: 30px; font-family: Inter, Segoe UI, Kalam, Roboto, Helvetica, Arial, sans-serif; font-weight: 700; letter-spacing:-0.4px;" data-final-font-size="30">
        <tspan x="346.0" dy="29.33px">Monitor Success</tspan>
      </text>
      <rect id="ITEM_5_HEAD_FRAME" x="206.0" y="845.0" width="280" height="34" fill="none"/>
      <text id="ITEM_5_BODY" x="362.0" y="885.0" text-anchor="middle" font-size="18" fill="var(--primary-text)" data-bg-id="ITEM_5_BG" style="font-size: 26px; font-family: Inter, Segoe UI, Kalam, Roboto, Helvetica, Arial, sans-serif; font-weight: 400;" data-final-font-size="26">
        <tspan x="362.0" dy="26.20px">Evaluate recall accuracy</tspan>
        <tspan x="362.0" dy="29.90px">to refine future gaps</tspan>
      </text>
      <rect id="ITEM_5_BODY_FRAME" x="202.0" y="885.0" width="320" height="70" fill="none"/>
    </g>
  </g>
</svg>
